<svg width="24" height="24" viewBox="0 0 24 24" fill="none" xmlns="http://www.w3.org/2000/svg">
<mask id="mask0_2_7129" style="mask-type:alpha" maskUnits="userSpaceOnUse" x="0" y="0" width="24" height="24">
<rect width="24" height="24" fill="#D9D9D9"/>
</mask>
<g mask="url(#mask0_2_7129)">
<path d="M8.99999 9.30766V19.6922C8.99999 19.782 9.02882 19.8557 9.08649 19.9134C9.14416 19.9711 9.21791 19.9999 9.30774 19.9999H16V16.9037C16 16.646 16.0862 16.431 16.2587 16.2587C16.4311 16.0862 16.6461 15.9999 16.9037 15.9999H20V9.30766C20 9.21783 19.9712 9.14408 19.9135 9.08641C19.8558 9.02874 19.7821 8.99991 19.6922 8.99991H9.30774C9.21791 8.99991 9.14416 9.02874 9.08649 9.08641C9.02882 9.14408 8.99999 9.21783 8.99999 9.30766ZM7.49999 19.6922V9.29216C7.49999 8.79349 7.67916 8.37016 8.03749 8.02216C8.39582 7.67399 8.82432 7.49991 9.32299 7.49991H19.6922C20.1909 7.49991 20.6169 7.67649 20.9702 8.02966C21.3234 8.38299 21.5 8.80899 21.5 9.30766V16.0402C21.5 16.2813 21.4532 16.5131 21.3595 16.7354C21.266 16.9579 21.1372 17.1512 20.973 17.3152L17.3152 20.9729C17.1512 21.1371 16.958 21.2659 16.7355 21.3594C16.5132 21.4531 16.2814 21.4999 16.0402 21.4999H9.30774C8.80907 21.4999 8.38307 21.3233 8.02974 20.9702C7.67657 20.6168 7.49999 20.1908 7.49999 19.6922ZM2.52499 6.42291C2.43149 5.92424 2.52866 5.47491 2.81649 5.07491C3.10416 4.67491 3.49741 4.42816 3.99624 4.33466L14.2307 2.52491C14.7192 2.43141 15.1609 2.53108 15.5557 2.82391C15.9506 3.11691 16.2051 3.50766 16.3192 3.99616L16.475 4.79991C16.5327 5.04991 16.4938 5.24924 16.3585 5.39791C16.2233 5.54674 16.0628 5.63458 15.877 5.66141C15.691 5.68841 15.5143 5.65541 15.347 5.56241C15.1798 5.46941 15.0642 5.29791 15 5.04791L14.825 4.21141C14.8122 4.14091 14.7737 4.08483 14.7095 4.04316C14.6455 4.00149 14.575 3.98708 14.498 3.99991L4.25974 5.81916C4.16991 5.83199 4.10257 5.87366 4.05774 5.94416C4.01291 6.01466 3.99682 6.09483 4.00949 6.18466L5.67299 15.6692C5.71016 15.8757 5.67299 16.0642 5.56149 16.2347C5.44999 16.4052 5.29107 16.5122 5.08474 16.5557C4.87191 16.5993 4.68116 16.5596 4.51249 16.4364C4.34399 16.3134 4.24116 16.1455 4.20399 15.9327L2.52499 6.42291Z" fill="#3D404B"/>
</g>
</svg>
